# xmcd CD database file
#
# Track frame offsets:
#	150
#	16111
#	44058
#	59474
#	75308
#	94935
#	121560
#	141554
#	153985
#	171645
#
# Disc length: 2678 seconds
#
# Revision: 0
# Processed by: cddbd v1.5.2PL0 Copyright (c) Steve Scherf et al.
# Submitted via: CDex 1.79
#
DISCID=810a740a
DTITLE=Dirty Brown Jug Band - Family Tradition
DYEAR=2015
DGENRE=Country
TTITLE0=Wayne County Lullaby
TTITLE1=Family Tradition
TTITLE2=Road to Nowhere
TTITLE3=No Place Like Home
TTITLE4=Reba
TTITLE5=She Meant Nothing
TTITLE6=Bed Rock
TTITLE7=Larry Johnson
TTITLE8=Deepest Wounds
TTITLE9=The Only One
EXTD=YEAR: 2015
EXTT0=
EXTT1=
EXTT2=
EXTT3=
EXTT4=
EXTT5=
EXTT6=
EXTT7=
EXTT8=
EXTT9=
PLAYORDER=
